<?xml version="1.0" standalone="no"?>
<!DOCTYPE svg PUBLIC "-//W3C//DTD SVG 20010904//EN"
 "http://www.w3.org/TR/2001/REC-SVG-20010904/DTD/svg10.dtd">
<svg version="1.0" xmlns="http://www.w3.org/2000/svg"
 width="360.000000pt" height="377.000000pt" viewBox="0 0 360.000000 377.000000"
 preserveAspectRatio="xMidYMid meet">

<g transform="translate(0.000000,377.000000) scale(0.100000,-0.100000)"
fill="#000000" stroke="none">
<path d="M1590 3751 c-401 -89 -710 -389 -811 -792 -18 -71 -20 -104 -17 -267
4 -186 4 -188 42 -300 65 -190 173 -350 326 -481 71 -61 71 -61 45 -71 -15 -6
-29 -10 -31 -10 -16 0 -161 -69 -238 -113 -406 -230 -710 -617 -841 -1072 -38
-132 -55 -243 -61 -395 -5 -125 -4 -138 15 -168 12 -18 35 -41 53 -52 33 -20
50 -20 1736 -20 l1702 1 35 30 c55 49 66 123 45 314 -40 360 -198 715 -438
990 -174 199 -447 389 -699 487 l-43 16 118 119 c75 74 135 146 166 195 291
470 183 1057 -256 1391 -187 142 -368 204 -618 212 -118 4 -161 2 -230 -14z
m358 -297 c293 -60 518 -275 587 -561 14 -58 17 -100 12 -210 -5 -148 -16
-192 -75 -308 -182 -362 -624 -516 -989 -345 -202 94 -350 279 -412 515 -16
61 -14 290 4 360 22 86 96 231 152 297 181 212 452 307 721 252z m142 -1819
c525 -114 928 -473 1104 -984 34 -98 76 -275 76 -320 l0 -21 -1439 0 c-791 0
-1453 3 -1470 6 -38 8 -38 12 -10 147 39 188 130 400 246 575 64 97 239 277
333 343 195 138 409 229 625 264 118 19 427 13 535 -10z"/>
</g>
</svg>
